# xmcd
# 
# Track frame offsets:
#     150
#     15560
#     30845
#     43080
# 
# Disc length: 728
# 
# Revision: 1
# Processed by: cddbd v1.5.2PL0 Copyright (c) Steve Scherf et al.
# Submitted via: fre:ac v1.0.17
# 
DISCID=2102d604
DTITLE=Ray Charles - Ray Charles Cd Sampler
DYEAR=2005
DGENRE=Blues
TTITLE0=(Night Time Is) The Right Time
TTITLE1=Drown In My Own Tears
TTITLE2=Leave My Woman Alone
TTITLE3=Lonely Avenue
EXTD=
EXTT0=
EXTT1=
EXTT2=
EXTT3=
PLAYORDER=
